<svg xmlns="http://www.w3.org/2000/svg" version="1.1" xmlns:xlink="http://www.w3.org/1999/xlink" xmlns:svgjs="http://svgjs.dev/svgjs" width="2000" height="1247" viewBox="0 0 2000 1247"><g transform="matrix(1,0,0,1,-1.2121212121212466,0.504858299595071)"><svg viewBox="0 0 396 247" data-background-color="#ff908b" preserveAspectRatio="xMidYMid meet" height="1247" width="2000" xmlns="http://www.w3.org/2000/svg" xmlns:xlink="http://www.w3.org/1999/xlink"><g id="tight-bounds" transform="matrix(1,0,0,1,0.2400000000000091,-0.09999999999999432)"><svg viewBox="0 0 395.52 247.2" height="247.2" width="395.52"><g><svg></svg></g><g><svg viewBox="0 0 395.52 247.2" height="247.2" width="395.52"><g transform="matrix(1,0,0,1,128.9389760391198,47.215199999999996)"><svg viewBox="0 0 137.64204792176037 152.7696" height="152.7696" width="137.64204792176037"><g><svg viewBox="0 0 137.64204792176037 152.7696" height="152.7696" width="137.64204792176037"><g><svg viewBox="0 0 137.64204792176037 152.7696" height="152.7696" width="137.64204792176037"><g><svg viewBox="0 0 137.64204792176037 152.7696" height="152.7696" width="137.64204792176037"><g id="textblocktransform"><svg viewBox="0 0 137.64204792176037 152.7696" height="152.7696" width="137.64204792176037" id="textblock"><g><svg viewBox="0 0 137.64204792176037 152.7696" height="152.7696" width="137.64204792176037"><g transform="matrix(1,0,0,1,0,0)"><svg width="137.64204792176037" viewBox="0.5 -29.5 36.849998474121094 40.900001525878906" height="152.7696" data-palette-color="#ed2647"><path d="M1.9-2.7L1.9-2.7 5.25-2.4Q6.35-2.4 6.93-2.63 7.5-2.85 7.78-2.75 8.05-2.65 7.65-2.38 7.25-2.1 6.33-1.95 5.4-1.8 5.2-1.7L5.2-1.7Q6-1.4 6.95-0.85L6.95-0.85 9.6 0.8Q10.8-2 11.3-3.6L11.3-3.6Q11-3.45 10.5-3.38 10-3.3 10-3.65L10-3.65Q10-4 10.6-4.2L10.6-4.2 11.7-4.5Q12.5-6.8 13.48-10.08 14.45-13.35 14.45-13.4L14.45-13.4Q17.45-23 19.65-25.5 21.85-28 23.7-28.75 25.55-29.5 26.5-29.5L26.5-29.5Q29.15-29.5 30.7-27.4L30.7-27.4Q31.75-25.95 31.75-23.75L31.75-23.75Q31.75-19.6 28.93-15.5 26.1-11.4 22.1-8.58 18.1-5.75 13.8-4.25L13.8-4.25Q12.3-0.7 10.95 1.6L10.95 1.6Q18.6 6.5 21.8 7.55L21.8 7.55Q25.5 8.8 28.85 8.8L28.85 8.8Q32.5 8.8 34.9 6.8L34.9 6.8Q36.15 5.8 36.15 4.7 36.15 3.6 35.73 2.75 35.3 1.9 35.8 1.83 36.3 1.75 36.6 2.35L36.6 2.35Q37.35 4 37.35 5.75L37.35 5.75Q37.35 6.05 37.35 6.35L37.35 6.35Q37.3 8.25 35.6 9.7L35.6 9.7Q33.6 11.4 29.45 11.4L29.45 11.4Q26.65 11.4 24.53 10.65 22.4 9.9 21.18 9.43 19.95 8.95 18.13 7.78 16.3 6.6 15.55 6.1L15.55 6.1Q14.05 5.1 10.45 2.4L10.45 2.4Q7.85 6.9 5.85 6.9L5.85 6.9Q5.35 6.9 5.25 6.73 5.15 6.55 5.28 6.4 5.4 6.25 5.55 6.25L5.55 6.25Q7.2 6.1 9.25 1.6L9.25 1.6Q6.45-0.25 4.55-0.9L4.55-0.9Q2.85-0.2 2.2-0.2 1.55-0.2 1.35-0.25L1.35-0.25Q0.5-0.55 0.5-1.3L0.5-1.3Q0.5-2.35 1.8-2.7L1.8-2.7Q1.8-2.7 1.9-2.7ZM29.7-24.7L29.7-24.7Q29.7-28.5 26.85-28.5L26.85-28.5Q24.3-28.5 22.5-25.9L22.5-25.9Q20.5-23.1 19.6-20.68 18.7-18.25 18.3-17.1L18.3-17.1Q17.3-14.3 16.75-12L16.75-12Q15.1-7.4 14.35-5.65L14.35-5.65Q20.1-8.25 24.28-12.7 28.45-17.15 29.5-22.75L29.5-22.75Q29.7-23.8 29.7-24.7Z" opacity="1" transform="matrix(1,0,0,1,0,0)" fill="#ed2647" class="wordmark-text-0" data-fill-palette-color="primary" id="text-0"></path></svg></g></svg></g></svg></g></svg></g></svg></g></svg></g></svg></g><path d="M84.28 41.215L84.28 0 331.48 0 331.48 247.2 84.28 247.2 84.28 205.985 98.057 205.985 98.057 233.423 317.703 233.423 317.703 13.777 98.057 13.777 98.057 41.215Z" fill="#ed2647" stroke="transparent" data-fill-palette-color="primary"></path></svg></g><defs></defs></svg><rect width="395.52" height="247.2" fill="none" stroke="none" visibility="hidden"></rect></g></svg></g></svg>